<svg viewBox="0 0 200 200" fill="none" xmlns="http://www.w3.org/2000/svg">
  <!-- Browser con conversione - Sito / Landing -->
  <g stroke="currentColor" stroke-width="1.5" stroke-linecap="round" stroke-linejoin="round">
    <!-- Browser frame -->
    <rect x="25" y="30" width="120" height="95" rx="4" />
    
    <!-- Barra browser -->
    <line x1="25" y1="48" x2="145" y2="48" />
    <circle cx="38" cy="39" r="3" fill="currentColor" fill-opacity="0.2"/>
    <circle cx="50" cy="39" r="3" fill="currentColor" fill-opacity="0.2"/>
    <circle cx="62" cy="39" r="3" fill="currentColor" fill-opacity="0.2"/>
    <rect x="75" y="36" width="55" height="6" rx="3" fill="currentColor" fill-opacity="0.1"/>
    
    <!-- Contenuto pagina -->
    <!-- Hero text -->
    <rect x="40" y="58" width="50" height="6" rx="1" fill="currentColor" fill-opacity="0.4"/>
    <rect x="40" y="68" width="35" height="4" rx="1" fill="currentColor" fill-opacity="0.2"/>
    
    <!-- CTA Button -->
    <rect x="40" y="82" width="40" height="14" rx="7" fill="currentColor" fill-opacity="0.15"/>
    <rect x="48" y="87" width="24" height="4" rx="1" fill="currentColor" fill-opacity="0.4"/>
    
    <!-- Immagine placeholder -->
    <rect x="95" y="58" width="35" height="38" rx="2" fill="currentColor" fill-opacity="0.08"/>
    <circle cx="112" cy="72" r="8" stroke-dasharray="2 2" opacity="0.4"/>
    
    <!-- Sezione inferiore -->
    <rect x="40" y="105" width="90" height="4" rx="1" fill="currentColor" fill-opacity="0.15"/>
    <rect x="40" y="113" width="70" height="4" rx="1" fill="currentColor" fill-opacity="0.1"/>
    
    <!-- Freccia conversione -->
    <path d="M155 75 Q175 75 175 100 Q175 125 155 125" stroke-dasharray="4 3"/>
    <polygon points="155,120 155,130 148,125" fill="currentColor" fill-opacity="0.3"/>
    
    <!-- Target/Lead -->
    <circle cx="175" cy="155" r="25" />
    <circle cx="175" cy="155" r="16" />
    <circle cx="175" cy="155" r="7" fill="currentColor" fill-opacity="0.2"/>
    <circle cx="175" cy="155" r="3" fill="currentColor"/>
    
    <!-- Linea connessione -->
    <line x1="155" y1="125" x2="160" y2="138" stroke-dasharray="3 2" opacity="0.5"/>
  </g>
</svg>
